# xmcd CD database file
#
# Track frame offsets:
#	150
#	25167
#	61429
#	98901
#	178878
#	181510
#	215962
#	245874
#	277411
#	286158
#	300525
#
# Disc length: 4521 seconds
#
# Revision: 0
# Processed by: cddbd v1.5.1PL0 Copyright (c) Steve Scherf et al.
# Submitted via: CDex 1.51
#
DISCID=aa11a70b
DTITLE=Emily Remler Trio - Live at Perth, Australia [CD2]
DYEAR=1989
DGENRE=Jazz
TTITLE0=Joy Spring
TTITLE1=I Love You
TTITLE2=Softly as in a Morning Sunrise
TTITLE3=How Insensitive
TTITLE4=Straight No Chaser
TTITLE5=Fulkallero
TTITLE6=D Natural Blues
TTITLE7=Days of Wine and Roses
TTITLE8=solo original
TTITLE9=Polka Dots and Moonbeams
TTITLE10=All the Things You Are
EXTD=YEAR: 1989
EXTT0=
EXTT1=
EXTT2=
EXTT3=
EXTT4=
EXTT5=
EXTT6=
EXTT7=
EXTT8=
EXTT9=
EXTT10=
PLAYORDER=
